<svg xmlns="http://www.w3.org/2000/svg" width="1200" height="360" viewBox="0 0 1200 360" role="img" aria-label="IBOM lifecycle: Assessment, Definition, Codification, Deployment, Operation, Assurance">
  <defs>
    <style>
      .bg { fill: #ffffff; }
      .ink { fill: #0B0E14; }
      .steel { fill: #2B3445; }
      .muted { fill: #E3E6EB; }
      .card { fill: #ffffff; stroke: #E3E6EB; stroke-width: 2; }
      .label { font: 600 14px ui-sans-serif, system-ui, -apple-system, "Segoe UI", Arial, sans-serif; letter-spacing: 0.12em; }
      .title { font: 700 18px ui-sans-serif, system-ui, -apple-system, "Segoe UI", Arial, sans-serif; }
      .small { font: 500 13px ui-sans-serif, system-ui, -apple-system, "Segoe UI", Arial, sans-serif; }
    </style>
  </defs>

  <rect class="bg" x="0" y="0" width="1200" height="360" rx="24" />

  <text x="60" y="70" class="title ink">IBOM<sup>®</sup> Lifecycle</text>
  <text x="60" y="98" class="small steel">A repeatable operating model from assessment to assurance.</text>

  <!-- Timeline rail -->
  <path d="M90 190 H1110" fill="none" stroke="#E3E6EB" stroke-width="6" stroke-linecap="round" />

  <!-- Stage cards -->
  <!-- Layout: 6 cards evenly spaced -->
  <!-- Colors match strand palette -->
  <!-- Orange: #FF8C69, Purple: #8B17FF, Blue: #174AFF, Green: #DDF952 -->

  <!-- 1 -->
  <g transform="translate(70 130)">
    <rect class="card" x="0" y="0" width="170" height="170" rx="18" />
    <circle cx="22" cy="22" r="10" fill="#FF8C69" />
    <text x="44" y="28" class="label steel">STAGE 01</text>
    <text x="18" y="74" class="title ink">Assessment</text>
    <text x="18" y="102" class="small steel">Intent, risk, exposure</text>
  </g>

  <!-- 2 -->
  <g transform="translate(255 130)">
    <rect class="card" x="0" y="0" width="170" height="170" rx="18" />
    <circle cx="22" cy="22" r="10" fill="#8B17FF" />
    <text x="44" y="28" class="label steel">STAGE 02</text>
    <text x="18" y="74" class="title ink">Definition</text>
    <text x="18" y="102" class="small steel">Semantic source of truth</text>
  </g>

  <!-- 3 -->
  <g transform="translate(440 130)">
    <rect class="card" x="0" y="0" width="170" height="170" rx="18" />
    <circle cx="22" cy="22" r="10" fill="#174AFF" />
    <text x="44" y="28" class="label steel">STAGE 03</text>
    <text x="18" y="74" class="title ink">Codification</text>
    <text x="18" y="102" class="small steel">Graph, tokens, policy</text>
  </g>

  <!-- 4 -->
  <g transform="translate(625 130)">
    <rect class="card" x="0" y="0" width="170" height="170" rx="18" />
    <circle cx="22" cy="22" r="10" fill="#DDF952" />
    <text x="44" y="28" class="label steel">STAGE 04</text>
    <text x="18" y="74" class="title ink">Deployment</text>
    <text x="18" y="102" class="small steel">APIs, workflows, versions</text>
  </g>

  <!-- 5 -->
  <g transform="translate(810 130)">
    <rect class="card" x="0" y="0" width="170" height="170" rx="18" />
    <circle cx="22" cy="22" r="10" fill="#FF8C69" />
    <text x="44" y="28" class="label steel">STAGE 05</text>
    <text x="18" y="74" class="title ink">Operation</text>
    <text x="18" y="102" class="small steel">Runtime behaviour control</text>
  </g>

  <!-- 6 -->
  <g transform="translate(995 130)">
    <rect class="card" x="0" y="0" width="170" height="170" rx="18" />
    <circle cx="22" cy="22" r="10" fill="#8B17FF" />
    <text x="44" y="28" class="label steel">STAGE 06</text>
    <text x="18" y="74" class="title ink">Assurance</text>
    <text x="18" y="102" class="small steel">Audit, drift, remediation</text>
  </g>

  <!-- Connectors -->
  <path d="M170 190 H255" fill="none" stroke="#FF8C69" stroke-width="4" stroke-linecap="round" />
  <path d="M355 190 H440" fill="none" stroke="#8B17FF" stroke-width="4" stroke-linecap="round" />
  <path d="M540 190 H625" fill="none" stroke="#174AFF" stroke-width="4" stroke-linecap="round" />
  <path d="M725 190 H810" fill="none" stroke="#DDF952" stroke-width="4" stroke-linecap="round" />
  <path d="M910 190 H995" fill="none" stroke="#FF8C69" stroke-width="4" stroke-linecap="round" />
</svg>
