<svg xmlns="http://www.w3.org/2000/svg" viewBox="0 0 520 140" role="img" aria-label="Advanced Analytica">
  <g fill="#ffffff">
    <!-- Simple logomark approximation (placeholder) -->
    <g opacity="0.95">
      <rect x="30" y="32" width="10" height="10" rx="2" />
      <rect x="46" y="32" width="10" height="10" rx="2" />
      <rect x="62" y="32" width="10" height="10" rx="2" />
      <rect x="30" y="48" width="10" height="10" rx="2" />
      <rect x="46" y="48" width="10" height="10" rx="2" />
      <rect x="62" y="48" width="10" height="10" rx="2" />
      <rect x="30" y="64" width="10" height="10" rx="2" />
      <rect x="46" y="64" width="10" height="10" rx="2" />
      <rect x="62" y="64" width="10" height="10" rx="2" />
    </g>
    <path d="M92 88V34h18l18 18V88h-18V60L110 52v36H92z" opacity="0.95"/>
    <g font-family="ui-sans-serif, system-ui, -apple-system, Segoe UI, Arial, sans-serif" font-weight="800" letter-spacing="1.5">
      <text x="150" y="66" font-size="40">ADVANCED</text>
      <text x="150" y="104" font-size="40" opacity="0.9">ANALYTICA</text>
    </g>
  </g>
</svg>
