<?xml version="1.0" encoding="UTF-8"?>
<svg id="Layer_1" xmlns="http://www.w3.org/2000/svg" xmlns:xlink="http://www.w3.org/1999/xlink" version="1.1" viewBox="0 0 327 327">
  <!-- Generator: Adobe Illustrator 30.1.0, SVG Export Plug-In . SVG Version: 2.1.1 Build 136)  -->
  <defs>
    <style>
      .st0 {
        fill: #121826;
      }

      .st1 {
        stroke: #ff8c69;
      }

      .st1, .st2 {
        fill: none;
        stroke-linecap: square;
        stroke-linejoin: round;
        stroke-width: 5px;
      }

      .st2 {
        stroke: #c938ff;
      }
    </style>
  </defs>
  <rect class="st0" width="326.1" height="326.1" rx="7.3" ry="7.3"/>
  <path class="st1" d="M33,85.2h52.1c43.2,0,78.3,35.1,78.3,78.3s-35,78.3-78.3,78.3h-52.1"/>
  <path class="st2" d="M293.2,85.2h-51.5c-43.2,0-78.3,35.1-78.3,78.3s35,78.3,78.3,78.3h51.5"/>
  <path class="st2" d="M293.2,65h-53.9c-53.2,0-96.4,44.1-96.4,98.5s43.1,98.5,96.4,98.5h53.9"/>
  <path class="st1" d="M33,65h54.5c52.9,0,95.8,44.1,95.8,98.5s-42.9,98.5-95.8,98.5h-54.5"/>
  <path class="st1" d="M33.4,104.8h47.7c34.4,0,62.2,25.8,62.2,57.7s-27.8,57.7-62.2,57.7h-48.1"/>
  <path class="st2" d="M292.7,104.8h-47.1c-34.4,0-62.2,25.8-62.2,57.7s27.8,57.7,62.2,57.7h47.1"/>
  <g id="mTD0jF.tif">
    <image id="Layer_0" width="150" height="150" transform="translate(389.5 -128)" xlink:href="assessment-1.png"/>
  </g>
</svg>