<?xml version="1.0" encoding="UTF-8"?>
<svg id="Layer_2" data-name="Layer 2" xmlns="http://www.w3.org/2000/svg" viewBox="0 0 326.1 326.1">
  <defs>
    <style>
      .cls-1 {
        stroke: #ef27f4;
      }

      .cls-1, .cls-2 {
        fill: none;
        stroke-linecap: square;
        stroke-linejoin: round;
        stroke-width: 5px;
      }

      .cls-2 {
        stroke: #ff8c69;
      }
    </style>
  </defs>
  <g id="Layer_1-2" data-name="Layer 1">
    <rect width="326.1" height="326.1" rx="7.3" ry="7.3"/>
    <path class="cls-2" d="M33,85.2h52.1c43.2,0,78.3,35.1,78.3,78.3s-35,78.3-78.3,78.3h-52.1"/>
    <path class="cls-2" d="M33,65h54.5c52.9,0,95.8,44.1,95.8,98.5s-42.9,98.5-95.8,98.5h-54.5"/>
    <path class="cls-2" d="M33.4,104.8h47.7c34.4,0,62.2,25.8,62.2,57.7s-27.8,57.7-62.2,57.7h-48.1"/>
    <path class="cls-1" d="M293.2,85.2h-51.5c-43.2,0-78.3,35.1-78.3,78.3s35,78.3,78.3,78.3h51.5"/>
    <path class="cls-1" d="M293.2,65h-53.9c-53.2,0-96.4,44.1-96.4,98.5s43.1,98.5,96.4,98.5h53.9"/>
    <path class="cls-1" d="M292.7,104.8h-47.1c-34.4,0-62.2,25.8-62.2,57.7s27.8,57.7,62.2,57.7h47.1"/>
  </g>
</svg>