<svg xmlns="http://www.w3.org/2000/svg" viewBox="0 0 640 640" aria-hidden="true" focusable="false">
  <rect width="640" height="640" rx="40" fill="#121826" />

  <!-- Shield -->
  <g fill="none" stroke-linecap="round" stroke-linejoin="round" stroke-width="14" opacity=".9">
    <path
      d="M320 150c70 45 135 55 170 60v125c0 120-70 190-170 235-100-45-170-115-170-235V210c35-5 100-15 170-60z"
      stroke="#e3e6eb"
      opacity=".35"
    />
    <path
      d="M320 190c55 35 105 44 130 48v98c0 90-52 145-130 180-78-35-130-90-130-180v-98c25-4 75-13 130-48z"
      stroke="#174aff"
      opacity=".75"
    />
  </g>

  <!-- Check -->
  <g fill="none" stroke-linecap="round" stroke-linejoin="round" stroke-width="18" opacity=".95">
    <path d="M250 345l55 55 130-140" stroke="#ddf952" />
  </g>

  <!-- Audit dots -->
  <g fill="none" stroke-linecap="round" stroke-linejoin="round" stroke-width="12" opacity=".9">
    <circle cx="210" cy="470" r="16" stroke="#ff8c69" />
    <circle cx="320" cy="500" r="16" stroke="#8b17ff" />
    <circle cx="430" cy="470" r="16" stroke="#174aff" />
  </g>
</svg>
