<svg xmlns="http://www.w3.org/2000/svg" viewBox="0 0 640 640" aria-hidden="true" focusable="false">
  <rect width="640" height="640" rx="40" fill="#121826" />

  <!-- Braces -->
  <g fill="none" stroke="#e3e6eb" stroke-linecap="round" stroke-linejoin="round" stroke-width="14" opacity=".92">
    <path d="M260 140c-46 0-70 24-70 70v40c0 38-18 58-52 62v16c34 4 52 24 52 62v40c0 46 24 70 70 70" />
    <path d="M380 140c46 0 70 24 70 70v40c0 38 18 58 52 62v16c-34 4-52 24-52 62v40c0 46-24 70-70 70" />
  </g>

  <!-- Graph dots inside -->
  <g fill="none" stroke-linecap="round" stroke-linejoin="round" stroke-width="12" opacity=".9">
    <path d="M270 320h100" stroke="#174aff" />
    <path d="M320 260v120" stroke="#8b17ff" />
    <circle cx="320" cy="260" r="18" stroke="#ddf952" />
    <circle cx="320" cy="380" r="18" stroke="#ff8c69" />
    <circle cx="270" cy="320" r="14" stroke="#e3e6eb" opacity=".7" />
    <circle cx="370" cy="320" r="14" stroke="#e3e6eb" opacity=".7" />
  </g>
</svg>
