<svg xmlns="http://www.w3.org/2000/svg" viewBox="0 0 640 640" aria-hidden="true" focusable="false">
  <rect width="640" height="640" rx="40" fill="#121826" />

  <!-- Chat bubbles -->
  <g fill="none" stroke="#e3e6eb" stroke-linecap="round" stroke-linejoin="round" stroke-width="12" opacity=".95">
    <path d="M140 200h280c44 0 80 36 80 80v44c0 44-36 80-80 80H290l-86 66v-66H140c-44 0-80-36-80-80v-44c0-44 36-80 80-80z" />
    <path d="M260 120h240c44 0 80 36 80 80v30c0 44-36 80-80 80h-50" opacity=".6" />
  </g>

  <!-- UI lines -->
  <g fill="none" stroke-linecap="round" stroke-linejoin="round" stroke-width="12" opacity=".9">
    <path d="M160 290h180" stroke="#ddf952" />
    <path d="M160 340h230" stroke="#174aff" />
    <path d="M160 390h140" stroke="#8b17ff" />
    <circle cx="420" cy="380" r="16" stroke="#ff8c69" />
  </g>

  <!-- Bottom rails -->
  <g fill="none" stroke-linecap="round" stroke-linejoin="round" stroke-width="10" opacity=".45">
    <path d="M90 560h460" stroke="#174aff" />
    <path d="M90 520h460" stroke="#8b17ff" />
    <path d="M90 480h460" stroke="#ff8c69" />
  </g>
</svg>
