<?xml version="1.0" encoding="UTF-8"?>
<svg id="Layer_1" xmlns="http://www.w3.org/2000/svg" xmlns:xlink="http://www.w3.org/1999/xlink" version="1.1" viewBox="0 0 327 327">
  <!-- Generator: Adobe Illustrator 30.1.0, SVG Export Plug-In . SVG Version: 2.1.1 Build 136)  -->
  <defs>
    <style>
      .st0 {
        fill: #121826;
      }

      .st1 {
        fill: #ff8b6b;
      }
    </style>
  </defs>
  <rect class="st0" x="1" width="326.1" height="326.1" rx="7.3" ry="7.3"/>
  <g id="mTD0jF.tif">
    <image id="Layer_0" width="150" height="150" transform="translate(389.5 -128)" xlink:href="codification-1.png"/>
  </g>
  <g id="sBB1Ks.tif">
    <g>
      <path class="st1" d="M85.1,266.2c-.5-14.2-11.5-25.3-25.9-25.4v-4.9c16.8,0,30.4,13.2,30.7,30.1-1.5.7-3.1.6-4.8.3Z"/>
      <path class="st1" d="M269.2,240.5c-14.4.3-25.6,11.3-25.9,25.8h-4.9c0-16.9,13.8-30.5,30.7-30.5v4.8Z"/>
      <g>
        <path class="st1" d="M161.6,266.8l-.5-6c-1.1-13.7-4.4-27.2-10.5-39.3-17.6-34.7-52.9-56.4-91.6-56.1l.2-4.9c54.3-.1,97.8-40.5,101.9-95.3l.4-5.9h5.5c0,56.2,46.2,102,102.1,101.3v5c-2.3,0-4.2-.3-6-.2-53.8,2.7-96.2,47.2-96.1,100.9l-5.5.5ZM180.3,207.2c15.3-22.4,38-38,64.7-44.3-41.1-9.5-72.4-41.4-80.8-83-8.7,42.1-40.5,73.9-81.7,83,41.5,9.3,73.2,41.6,81.7,83.1,3-13.7,8.2-26.6,16.2-38.8Z"/>
        <path class="st1" d="M269.2,190.5c-41.9-.1-76.2,33.9-76.3,75.8h-4.8c0-44.6,36.4-80.8,81.1-80.7v4.9Z"/>
        <path class="st1" d="M269.2,135.7v4.6c-42.8.2-79.7-33.2-80.9-76v-4.7c1.4.3,2.9.6,4.7-.2-.2,39.5,30.6,72.9,70.4,76l5.9.5Z"/>
        <path class="st1" d="M59.4,140.1v-4.9c41.3.2,76.1-33.6,76.1-75.8h4.8c-.2,44.3-36,80.6-80.9,80.7Z"/>
        <path class="st1" d="M135.5,266.4c-.3-41.9-34.1-75.4-76-75.7-.2-1.4-.3-2.8-.3-4.8,44.4,0,80.7,35.6,81.1,80.3-1.3.4-2.7.5-4.8.3Z"/>
        <path class="st1" d="M109.7,266.4c-.1-25.8-19.6-46.6-45-50.3l-5.5-.8v-4.4c30.7.4,55.1,24.8,55.4,55.4h-4.9Z"/>
        <path class="st1" d="M59.5,115c-.4-1.8-.4-3.1-.2-4.7,27.9-.5,50.2-22.9,50.4-50.8h4.9c-.2,30.3-24.4,55.3-55.1,55.6Z"/>
        <path class="st1" d="M269.1,110.3v4.9c-28.1-.5-52.8-21.3-54.9-49.4l-.5-6.3h4.7c.3,27.4,22.3,50.7,50.7,50.8Z"/>
        <path class="st1" d="M218.6,266.1c-1.9.3-3.1.3-4.8.2.5-30.6,24.1-54.8,55-55.6.4,1.5.4,3,.3,4.9-27.7.4-50.2,22.5-50.5,50.5Z"/>
        <path class="st1" d="M269,85.4v4.8c-16.9,0-30.3-13.4-30.8-30.3h5c.6,14.1,11.3,25.2,25.8,25.5Z"/>
        <path class="st1" d="M59.5,90.1c-.3-1.8-.3-3.2-.2-4.8,14.2-.3,25.3-11.1,25.8-25.5,1.5-.4,3.1-.3,5-.1-.4,16.7-13.3,30.2-30.5,30.5Z"/>
      </g>
    </g>
  </g>
</svg>