<?xml version="1.0" encoding="UTF-8"?>
<svg id="Layer_1" xmlns="http://www.w3.org/2000/svg" xmlns:xlink="http://www.w3.org/1999/xlink" version="1.1" viewBox="0 0 327 327">
  <!-- Generator: Adobe Illustrator 30.1.0, SVG Export Plug-In . SVG Version: 2.1.1 Build 136)  -->
  <defs>
    <style>
      .st0 {
        fill: #121826;
      }

      .st1 {
        fill: #fd8b62;
      }

      .st2 {
        fill: #c439fe;
      }
    </style>
  </defs>
  <rect class="st0" width="326.1" height="326.1" rx="7.3" ry="7.3"/>
  <g id="mTD0jF.tif">
    <image id="Layer_0" width="150" height="150" transform="translate(389.5 -128)" xlink:href="definition-1.png"/>
  </g>
  <g>
    <path class="st2" d="M260.1,245.7l-184.2-.3c-9.1,0-17.6-10-17.6-18.7v-124.1c-.1-9.7,7.9-20.2,18.2-20.2h183.5c10.6,0,18.3,10.8,18.3,20.7v123.9c-1.4,9.8-8,17.1-18.1,18.7ZM258.6,240.9c7.5,0,14.4-6.8,14.4-14v-126.7c-1.5-8.1-8-13.2-16.2-13.2H77.9c-7.4,0-14.7,6.7-14.7,14.2v126.2c0,7.2,7.1,13.6,14.1,13.6h181.2Z"/>
    <path class="st2" d="M253.2,113.3H109.1c-1.2,0-2.4-1.5-2.4-2.3,0-1.1.9-2.1,2.5-2.7h144.1c1.8,0,2.7,1,2.8,2.2s-.7,2.8-2.8,2.8Z"/>
    <path class="st2" d="M223.3,174.1H86.1c-1.4,0-3.2-.5-4.3-.9s-1-2.1-.6-2.7,1.5-1.5,2.5-1.5h139.7c1.7,0,2.8,1.1,2.9,2.2.1,1.6-.8,2.8-2.9,2.8Z"/>
    <path class="st2" d="M210.5,133.6h-124.4c-1.3,0-3.3-.5-4.3-.9s-1-2.1-.7-2.7,1.5-1.5,2.5-1.5h126.5c2.1,0,3.1.5,3.3,2.3s-.8,2.7-2.9,2.7Z"/>
    <path class="st2" d="M256.1,153.8h-109.6c-1.4,0-2.7-1.4-2.7-2.3,0-1.4,1-2.8,2.7-2.8h109.1c1,0,2.4,1.2,2.5,1.9s-.5,2-2,3.2Z"/>
    <path class="st2" d="M131.2,153.8h-47.7c-1.2,0-2.6-1.3-2.6-2.3s1.3-2.7,2.7-2.7h47.4c1.1,0,2.4,1.4,2.5,2.3s-1.1,2.7-2.3,2.7Z"/>
    <path class="st1" d="M92.3,221.6c5.4.4,9.8-.8,10.8,1.9s-.7,3.1-1.6,3.1c-7.3.6-14.6,1-18.6-5.8-2.3-3.9-2.5-7.9-.7-12,1.8-4,5.4-7.2,10-7.3l8-.2c1.3,0,2.9,1.1,2.9,2.4-.1,4.2-4.4,2.3-11,3-3.7.4-6,4-6.1,7.2s2.2,7.4,6.4,7.7Z"/>
    <path class="st1" d="M116.7,221.6c4.9.4,10.8-.8,10.9,2.4s-1.2,2.9-2.4,2.9c-3.2,0-5.7,0-8.7-.2-6.5-.4-11.1-6.2-11.2-12.3,0-6.4,4.5-12.3,11.2-12.8s11.1-1.1,11,2.1-4.8,2.1-11.5,3c-3.6.5-5.7,4.4-5.7,7.6s2.5,6.9,6.4,7.2Z"/>
    <path class="st2" d="M254.8,133.6h-30.3c-1.2,0-2.5-1.4-2.7-2.3s1.2-2.8,2.7-2.8h30.5c1.1,1.3,1.2,3.7-.2,5.1Z"/>
    <path class="st2" d="M254,174.1h-15.4c-1.1,0-2.3-1.3-2.5-2.3s1.3-2.6,2.6-2.6h14.9c1.1,0,2.5,1.4,2.6,2.2s-1.1,2.7-2.2,2.7Z"/>
    <path class="st2" d="M95,113.2h-11.6c-1,0-2.6-1.4-2.6-2.3s1.4-2.7,2.6-2.7h11.5c1.5,0,2.7,1.1,2.7,2.2,0,1.8-.9,2.8-2.7,2.8Z"/>
  </g>
  <g id="sBB1Ks.tif">
    <image id="Layer_01" data-name="Layer_0" width="653" height="653" transform="translate(1.4 328.9) scale(.5)" xlink:href="definition-2.png"/>
  </g>
</svg>