<svg xmlns="http://www.w3.org/2000/svg" viewBox="0 0 640 640" aria-hidden="true" focusable="false">
  <rect width="640" height="640" rx="40" fill="#121826" />

  <!-- Terminal window -->
  <g fill="none" stroke="#e3e6eb" stroke-linecap="round" stroke-linejoin="round" stroke-width="10" opacity=".95">
    <path d="M130 170h380c28 0 50 22 50 50v210c0 28-22 50-50 50H130c-28 0-50-22-50-50V220c0-28 22-50 50-50z" />
    <path d="M80 240h480" />
    <path d="M128 206h.01" />
    <path d="M170 206h.01" />
    <path d="M212 206h.01" />
  </g>

  <!-- Prompt + cursor -->
  <g fill="none" stroke-linecap="round" stroke-linejoin="round" stroke-width="10">
    <path d="M150 318l56 44-56 44" stroke="#ddf952" opacity=".9" />
    <path d="M250 406h140" stroke="#174aff" opacity=".85" />
    <path d="M410 406h0" stroke="#174aff" opacity=".85" />
    <path d="M420 406h34" stroke="#ff8c69" opacity=".9" />
  </g>

  <!-- MCP-like connector -->
  <g fill="none" stroke-linecap="round" stroke-linejoin="round" stroke-width="10" opacity=".85">
    <path d="M180 520h116c18 0 34-10 42-26l22-42c8-16 24-26 42-26h116" stroke="#8b17ff" />
    <circle cx="180" cy="520" r="18" stroke="#8b17ff" />
    <circle cx="540" cy="520" r="18" stroke="#8b17ff" />
  </g>
</svg>
