<?xml version="1.0" encoding="UTF-8"?>
<svg id="Layer_2" data-name="Layer 2" xmlns="http://www.w3.org/2000/svg" viewBox="0 0 326.1 326.1">
  <defs>
    <style>
      .cls-1 {
        fill: #ef27f4;
      }

      .cls-2 {
        fill: #f18b6b;
      }
    </style>
  </defs>
  <g id="Layer_1-2" data-name="Layer 1">
    <rect width="326.1" height="326.1" rx="7.3" ry="7.3"/>
    <g id="lT6EOf.tif">
      <g>
        <path class="cls-1" d="M235.8,240.3c-19.2,17.7-44.7,28.1-70.8,27.8-.1-1.7-.2-3.2,0-4.8l8.5-.4,6.6-.9c3.7-.5,6.9-1.2,10.6-2.2,44.1-11.7,74.1-52.3,73.8-97.6,1.8-.2,3.3-.2,5,0,.3,29.4-12.2,58.3-33.8,78.2l.1-.1Z"/>
        <path class="cls-2" d="M64.7,162.2c-1.1,1.1-3.3,1-4.4.3s-.4-3.1-.4-4.4c2.2-56.4,48.7-101.4,104.8-101,0,1.7.8,3.8-.3,4.7s-3.4.3-5.2.4c-52.9,2.7-94.3,46.7-94.5,100.1v-.1Z"/>
        <path class="cls-1" d="M218.8,221.5c-14.6,13.3-34.1,21.4-53.8,21.1-.2-1.7-.3-3.2,0-4.9l6.5-.5c23.6-1.8,45.2-15.7,57.2-35.9,6.4-10.7,9.8-22.1,10.7-34.3l.4-4.9,5-.2v6.1c-.1,0-1.3,8.3-1.3,8.3-2.2,16.1-12.5,34.1-24.7,45.2h0Z"/>
        <path class="cls-2" d="M90.1,162.4h-4.7c-1-2-.2-3.9,0-6.1,3.3-41.6,37.5-74.3,79.2-74.1.4,1.7.3,3.2.2,5-41.7.3-74.5,33.7-74.7,75.2Z"/>
        <path class="cls-1" d="M168.9,211.9c20.9-1.7,38.1-16.2,43.9-35.9,1.4-4.6,2.2-8.7,1.8-13.6,1.7-.6,3.6-.8,5.2,0,0,28.2-21.5,51.6-49.4,54.6-1.9.2-3.5.8-5.6.2,0-1.3-.4-3,0-4.3s2.2-.7,3.9-.9l.2-.1Z"/>
        <path class="cls-2" d="M154.7,113.2c-34.8,4.2-43,50.7-40.1,48.8-1.3.8-3,1.1-4.8.6-.2-29.8,24-55.2,54.2-55.3.4,1.7.3,3.1.2,4.8l-9.5,1.2v-.1Z"/>
        <path class="cls-2" d="M153.3,166.7c-2.8-7.6,2.6-16,10.5-16.8s12.6,4,13.9,10.2-2.7,12.6-8.9,14.5-13-1.2-15.5-7.8v-.1ZM162.5,153.7c-5.2,1.6-7.4,7.2-6,11.7s6.7,7,11,5.9,7.8-6.7,6.5-11.5-6.5-7.7-11.6-6.1h.1Z"/>
        <path class="cls-1" d="M195.3,162.2c.3,16.5-13.6,30.8-30.2,30.7-.3-1.8-.2-3.3,0-5.1,14-.4,24.9-11.4,25.3-25.4,1.5-.8,3.1-.6,4.9-.2Z"/>
        <path class="cls-2" d="M164.6,136.9c-14.2,0-24.9,11.4-25.3,25.5-1.7.2-3.3.2-5-.2-.2-16,14-30.9,30.2-30.2.2,1.7.2,3.1,0,4.9h.1Z"/>
      </g>
    </g>
  </g>
</svg>