<?xml version="1.0" encoding="UTF-8"?>
<svg id="Layer_2" data-name="Layer 2" xmlns="http://www.w3.org/2000/svg" viewBox="0 0 651.92 651.94">
  <defs>
    <style>
      .cls-1 {
        fill: #f08b6b;
      }

      .cls-2 {
        fill: #bd3def;
      }
    </style>
  </defs>
  <g id="Layer_1-2" data-name="Layer 1">
    <g>
      <path d="M640.08,0c4.82,1.51,11.83,5.38,11.83,12.35v627.31c0,6.01-6.21,12.27-12.29,12.27H12.36c-7.01,0-10.84-6.95-12.36-12.63V9.97C2.89,5.03,6.38,1.43,12.67,0h627.42ZM135.72,346.5c.23-12.66,2.51-24.03,5.22-35.01,21.44-86.83,98.88-145.38,187.63-145.51,30.83-.05,55.36-27.82,55.32-57.38-3.45-.81-6.41-.68-9.4-.1-.44,24.57-19.69,47.66-45.73,47.97-50.99.61-99.9,17.98-137.59,52.77-40.63,37.51-64.97,90.01-65.32,145.81,2.4,1.15,6.35,1.64,8.65.19,2.44-1.53,1.15-5.7,1.21-8.75ZM183.7,344.53c5.86-77.45,70.8-134.1,147.56-132.78,23.36.4,46.41-10.58,63.73-25.48,23.21-19.96,35.88-48.01,36.25-78.08l-9.69.05c-.7,51.14-40.89,92.1-91.49,94.64-85.59-1.85-156.11,66.52-156.24,152.52,2.88.49,5.92.6,8.72.15,2.01-3.46.84-6.76,1.17-11.01ZM321.44,260.96c81.09,2.13,149.4-58.7,156.35-139.18l.25-13.4-9.6-.07c.33,77.63-62.22,142.6-140.6,142.85-58.45.18-106.9,45.45-107.04,104.93l9.66-.58c.75-50.59,39.95-91.52,90.99-94.56ZM273.46,356.42c-29.43,8.21-55.87,21.99-79.49,42.72-37.76,33.15-61.59,79.32-67.31,129.3l-.73,19.55,10.28-.13c-.98-8.32-.17-15.58.92-23.45,11.53-83.4,75.74-149.54,158.91-162.8,5.76-.92,10.99-1.74,16.96-2.01l16.11-.71c30.26-1.33,55.68-27.91,54.36-58.36,79.8-24.15,136.55-95.28,141.96-179.07l-.02-13.24-9.25-.43c.43,107.38-86.89,193.51-194.29,191.73-29.33,2.17-52.84,26.25-53.93,56l5.53.9ZM185.18,525.67c5.5-35.22,23.37-65.67,50.33-88.19,26.75-22.35,59.61-32.54,94.55-32.98,55.26-.69,102.26-49.14,100.91-104.11-3.55-.45-6.26-.61-9.54.17-.58,23.68-9.02,46.46-25,63.62-19.32,20.74-44.4,31.02-72.26,31.26-77.22.68-141.26,59.51-149.76,135.95l-.43,16.5,10.29.07c-.98-7.71-.35-14.18.91-22.3ZM230.63,547.53c.32-49.83,41.21-91.63,89.31-93.83l13.93-.64c73.96-3.39,134.59-60.25,143.56-133.61l.53-19.27c-3.63-.64-6.72-.41-10,.95.7,9.23-.29,16.83-1.96,25.84-12.18,65.78-68.85,115.05-136.3,116.49-26.37.57-51.06,7.16-71.55,24.79-23.21,19.96-37.77,48.5-37.25,79.66,3.43.15,6.68.5,9.73-.38ZM331.55,501.56c9.21.22,18.13-1.26,26.6-2.6,33.02-5.21,65.46-19.59,91.49-40.25,44.43-35.27,71.74-86.61,75.79-143.09.38-5.27.88-9.83.05-15.12-3.2-.84-6.46-.73-9.44.3.13,95.76-70.36,176.95-165.37,189.48-9.32,1.23-17.98,1.54-27.72,1.92-30.21,1.18-53.96,25.79-55.16,55.5l9.83.12c.46-12.56,5.92-24.07,14.58-32.44,10.95-10.59,23.85-14.19,39.35-13.82Z"/>
      <path class="cls-2" d="M230.63,547.53c-3.05.88-6.3.54-9.73.38-.52-31.16,14.04-59.69,37.25-79.66,20.49-17.62,45.19-24.22,71.55-24.79,67.45-1.45,124.12-50.71,136.3-116.49,1.67-9.02,2.67-16.61,1.96-25.84,3.29-1.37,6.37-1.59,10-.95l-.53,19.27c-8.98,73.36-69.61,130.22-143.56,133.61l-13.93.64c-48.1,2.2-88.99,44-89.31,93.83Z"/>
      <path class="cls-2" d="M331.55,501.56c-15.5-.36-28.4,3.23-39.35,13.82-8.65,8.37-14.12,19.88-14.58,32.44l-9.83-.12c1.2-29.71,24.95-54.32,55.16-55.5,9.74-.38,18.4-.69,27.72-1.92,95.01-12.53,165.5-93.71,165.37-189.48,2.98-1.04,6.24-1.15,9.44-.3.83,5.3.33,9.85-.05,15.12-4.05,56.48-31.35,107.82-75.79,143.09-26.03,20.66-58.48,35.04-91.49,40.25-8.47,1.34-17.39,2.81-26.6,2.6Z"/>
      <path class="cls-2" d="M185.18,525.67c-1.27,8.11-1.89,14.59-.91,22.3l-10.29-.07.43-16.5c8.5-76.44,72.53-135.27,149.76-135.95,27.86-.24,52.94-10.52,72.26-31.26,15.98-17.15,24.43-39.93,25-63.62,3.28-.78,5.99-.62,9.54-.17,1.35,54.97-45.65,103.42-100.91,104.11-34.93.44-67.79,10.63-94.55,32.98-26.95,22.51-44.83,52.97-50.33,88.19Z"/>
      <path class="cls-1" d="M321.44,260.96c-51.04,3.03-90.24,43.96-90.99,94.56l-9.66.58c.15-59.48,48.6-104.75,107.04-104.93,78.38-.25,140.93-65.22,140.6-142.85l9.6.07-.25,13.4c-6.95,80.48-75.25,141.32-156.35,139.18Z"/>
      <path class="cls-2" d="M383.47,300.53c1.32,30.45-24.1,57.04-54.36,58.36l-16.11.71c-5.97.26-11.2,1.09-16.96,2.01-83.17,13.26-147.38,79.4-158.91,162.8-1.09,7.87-1.9,15.13-.92,23.45l-10.28.13.73-19.55c5.72-49.97,29.54-96.15,67.31-129.3,23.62-20.73,50.07-34.51,79.49-42.72l4.35-1.21c15.49-4.32,31.28-5.44,47.68-5.6,26.8-.25,47.33-20.67,49.32-46.63l8.65-2.45Z"/>
      <path class="cls-1" d="M383.47,300.53l-8.65,2.45c-14.6,4.14-29.93,6.24-45.83,5.74-27.26-.85-50.31,19.26-51.17,46.49l-4.35,1.21-5.53-.9c1.09-29.75,24.6-53.83,53.93-56,107.4,1.78,194.72-84.35,194.29-191.73l9.25.43.02,13.24c-5.41,83.79-62.16,154.93-141.96,179.07Z"/>
      <path class="cls-1" d="M135.72,346.5c-.06,3.05,1.23,7.22-1.21,8.75-2.31,1.45-6.26.96-8.65-.19.35-55.8,24.69-108.3,65.32-145.81,37.69-34.79,86.61-52.16,137.59-52.77,26.04-.31,45.29-23.4,45.73-47.97,2.99-.58,5.95-.72,9.4.1.03,29.55-24.49,57.33-55.32,57.38-88.75.13-166.19,58.68-187.63,145.51-2.71,10.98-4.99,22.35-5.22,35.01Z"/>
      <path class="cls-1" d="M183.7,344.53c-.32,4.25.84,7.55-1.17,11.01-2.8.45-5.84.34-8.72-.15.14-86,70.66-154.37,156.24-152.52,50.6-2.54,90.79-43.5,91.49-94.64l9.69-.05c-.36,30.07-13.04,58.12-36.25,78.08-17.32,14.9-40.37,25.89-63.73,25.48-76.76-1.32-141.7,55.33-147.56,132.78Z"/>
      <path d="M374.82,302.98c-1.99,25.95-22.52,46.38-49.32,46.63-16.4.15-32.19,1.27-47.68,5.6.87-27.22,23.92-47.34,51.17-46.49,15.9.5,31.23-1.6,45.83-5.74Z"/>
    </g>
  </g>
</svg>