<svg xmlns="http://www.w3.org/2000/svg" viewBox="0 0 640 640" aria-hidden="true" focusable="false">
  <rect width="640" height="640" rx="40" fill="#121826" />

  <!-- Globe -->
  <g fill="none" stroke="#e3e6eb" stroke-linecap="round" stroke-linejoin="round" stroke-width="10" opacity=".95">
    <circle cx="320" cy="300" r="150" />
    <path d="M170 300h300" />
    <path d="M320 150c54 54 54 246 0 300" />
    <path d="M320 150c-54 54-54 246 0 300" />
    <path d="M220 210c64 30 136 30 200 0" />
    <path d="M220 390c64-30 136-30 200 0" />
  </g>

  <!-- Localisation pins -->
  <g fill="none" stroke-linecap="round" stroke-linejoin="round" stroke-width="10">
    <path d="M468 460c0 44-56 94-56 94s-56-50-56-94a56 56 0 1 1 112 0z" stroke="#ddf952" opacity=".85" />
    <circle cx="412" cy="460" r="16" stroke="#ddf952" opacity=".85" />
    <path d="M276 480c0 38-48 82-48 82s-48-44-48-82a48 48 0 1 1 96 0z" stroke="#174aff" opacity=".82" />
    <circle cx="228" cy="480" r="14" stroke="#174aff" opacity=".82" />
  </g>

  <!-- Subtle strands bottom -->
  <g fill="none" stroke-linecap="round" stroke-linejoin="round" stroke-width="10" opacity=".35">
    <path d="M60 640V538c0-44.2 35.8-80 80-80h420c44.2 0 80-35.8 80-80V60" stroke="#8b17ff" />
    <path d="M60 640V566c0-44.2 35.8-80 80-80h392c44.2 0 80-35.8 80-80V60" stroke="#ff8c69" />
  </g>
</svg>
