<svg xmlns="http://www.w3.org/2000/svg" viewBox="0 0 640 640" aria-hidden="true" focusable="false">
  <rect width="640" height="640" rx="40" fill="#121826" />

  <!-- Server rack -->
  <g fill="none" stroke="#e3e6eb" stroke-linecap="round" stroke-linejoin="round" stroke-width="12" opacity=".95">
    <path d="M160 140h320c22 0 40 18 40 40v80c0 22-18 40-40 40H160c-22 0-40-18-40-40v-80c0-22 18-40 40-40z" />
    <path d="M160 300h320c22 0 40 18 40 40v80c0 22-18 40-40 40H160c-22 0-40-18-40-40v-80c0-22 18-40 40-40z" />
    <path d="M160 460h320c22 0 40 18 40 40v40c0 22-18 40-40 40H160c-22 0-40-18-40-40v-40c0-22 18-40 40-40z" />
  </g>

  <!-- Ports / lights -->
  <g fill="none" stroke-linecap="round" stroke-linejoin="round" stroke-width="10" opacity=".9">
    <path d="M200 210h80" stroke="#ddf952" />
    <path d="M200 370h80" stroke="#174aff" />
    <path d="M200 515h80" stroke="#8b17ff" />
    <circle cx="470" cy="210" r="10" stroke="#ff8c69" />
    <circle cx="470" cy="370" r="10" stroke="#ff8c69" />
    <circle cx="470" cy="515" r="10" stroke="#ff8c69" />
  </g>

  <!-- Connector line (MCP bus) -->
  <g fill="none" stroke-linecap="round" stroke-linejoin="round" stroke-width="12" opacity=".85">
    <path d="M80 320h60c22 0 40 18 40 40v0c0 22-18 40-40 40H80" stroke="#8b17ff" />
    <path d="M560 320h-60c-22 0-40 18-40 40v0c0 22 18 40 40 40h60" stroke="#ddf952" />
  </g>
</svg>
