<?xml version="1.0" encoding="UTF-8"?>
<svg id="Layer_1" xmlns="http://www.w3.org/2000/svg" xmlns:xlink="http://www.w3.org/1999/xlink" version="1.1" viewBox="0 0 327 327">
  <!-- Generator: Adobe Illustrator 30.1.0, SVG Export Plug-In . SVG Version: 2.1.1 Build 136)  -->
  <defs>
    <style>
      .st0 {
        fill: #ef805d;
      }

      .st1 {
        fill: #121826;
      }

      .st2 {
        fill: #d3ee50;
      }

      .st3 {
        fill: #fff;
      }

      .st4 {
        fill: #c63efc;
      }

      .st5 {
        fill: #ff8c69;
      }
    </style>
  </defs>
  <rect class="st1" x=".2" y=".7" width="326.1" height="326.1" rx="7.3" ry="7.3"/>
  <g id="mTD0jF.tif">
    <image id="Layer_0" width="150" height="150" transform="translate(389.5 -128)" xlink:href="operation-1.png"/>
  </g>
  <g>
    <path class="st2" d="M-145.9,607.1c1.8-24.7,12-46.2,29.6-63.7,13.6-13.5,30.8-22.7,49.7-26.5s14.7-2,22.3-2.2,5-.8,7.2-1.8c8.6-3.9,14.4-12,14.7-21.4-9.7,2.1-13.2,2.3-22.3,2.9-13.7-.9-25.6,10.2-26.6,24.1l-4.4,1c1.5-16.6,13.5-29.6,30.1-29.7,51.9-.3,94-43.2,93.9-95.3l4.5-.2c.3,44-28.3,83-70.6,95.8,0,14.4-10.6,27.2-25.3,28.8-2.3.3-4.3,0-6.6.4-27.4.8-53,13.6-70.5,34.7-13.4,16.2-21.8,38.4-21.6,59.5h-4.5c0,.1.5-6.4.5-6.4Z"/>
    <path class="st0" d="M-46.6,470.3c-26.1.2-47.3,21-47.9,47.1-1.7.2-2.6.2-4.6,1,0-32.7,26.4-52.8,56.9-53.3,38-.6,66.5-34.2,66.7-70.5,1.6-.2,2.9,0,4.6.1,0,39.6-30.5,72.5-70,75.5-1.8.1-3.5.2-5.8.2Z"/>
    <path class="st0" d="M-141.8,517.3l-4.6.2.4-6.7c.9-13.6,4.8-26.5,11.2-38.7,16.4-31.4,48.9-52.5,84.8-53.1,14.9-.2,27.4-8.7,27.8-25l4.5.3c-.2,16.6-13.5,28.9-29.7,28.9-51.5.3-93.6,42.2-94.3,94Z"/>
    <path class="st0" d="M-117.9,517c-1.5.7-2.9.7-4.5.4.2-39.1,29.8-71.9,69-75.4,1.3-.1,3-.4,4.3-.4,26.9,1.2,49.8-19.8,50.3-47.1l4.7-.4c-.4,29.9-24.6,52.2-53.9,52.2-38.5.1-69.6,32.3-69.8,70.7Z"/>
    <path class="st4" d="M-42.8,565.7c-28.6.5-50,18.1-51.7,47.7-1,.2-2.8.2-4.5.1.4-24.4,17.1-45,40.8-50.5,6.5-1.5,12.7-.9,19.1-1.6,36.4-4.1,63.6-34.5,63.8-70.9h4.5c.2,39.6-32.1,74.5-72.1,75.2Z"/>
    <path class="st4" d="M-75.4,613.3c.9-14.7,12.2-26.5,26.7-27.3l8.6-.4c16.5-.8,32.3-6.6,46.1-15.7,6.9-4.5,16.9-13.3,21.6-19.7l2.9-4c8.7-11.7,16.3-30.8,17.3-45.1l.7-10.8h4.2c.2,54.7-43.5,99.1-98.3,99.9-5.2,0-9.4.9-13.9,3.7-6.8,4.2-11.1,11.4-11.5,19.6-1.6,0-2.9,0-4.4-.2Z"/>
    <path class="st4" d="M-83.6,552.3c-21.3,13-34.5,36-34.4,61.1h-4.6c.5-4.8.6-9.2,1.5-13.9,3.6-19.6,14.7-36.6,30.9-48s20.3-11.3,32-12.9c3.7-.5,6.8-1,10.5-.9,26.7.4,48.4-20.7,49-47.3h4.5c-.6,26.4-19.9,47.8-46,51.2-3.1.4-6.1.1-9.2.3-12.2.7-23.6,3.9-34.1,10.3Z"/>
  </g>
  <g id="QZ2kGc.tif">
    <path class="st3" d="M397.6,733.9V80.9h653v653H397.6ZM1037.7,732.9c7.1-1.5,10.9-5.8,11.9-12.3V94.1c-1.4-7.7-7.3-12.2-15.2-12.2H412.9c-8.5,0-14.2,7.1-14.2,15.2v620.6c0,7.9,4.5,13.7,12.2,15.2h626.9Z"/>
  </g>
  <g>
    <path class="st5" d="M254.5,263.1c-41-4.5-74.9-32.7-86.9-72.2-39.8,0-72.6,32.5-72.7,72.6h-4.7c0-42.2,33.7-76.3,76-77.3-1.4-6.6-2.3-12.7-2.7-19.8-1.6-.2-3.4,0-5.2.2-49.8,4.9-87.9,46.9-87.7,96.9h-4.6c-.2-45.3,29.8-85,72.8-97.7.1-39.9-32.2-72.7-72.6-72.8-.2-1.7-.1-3,.1-4.6,39.2,0,73,29.6,76.7,68.7l.7,7.3c6.6-1.4,12.9-2.4,19.8-2.8-2.1-51.5-44.8-92.3-95.4-92.9-1.1,0-2-.5-2.1-.9v-1.7s-.2-2.2-.2-2.2c45.5,0,85,29.4,98,72.9,40.2-.4,72.3-32.9,72.3-72.9l4.7.2c0,31.9-19.7,60.7-49.6,72.1-8.4,3.2-17,5.2-26.1,5.2,1.5,6.6,2.5,13,2.8,20,51.6-2.5,92.7-45.3,92.5-97,1.7-.2,3.2-.1,4.6.4,0,44.8-29.6,84.4-72.4,97.2-.2,40.1,32.4,73,72.9,73.1v4.6c-42.4-.4-76.6-33.7-77.5-76.4-6.8,1.6-13.3,2.5-20,2.9,2.2,52.1,45.4,93.2,97.6,92.8v4.4c-4,.1-7.4,0-11.3-.4Z"/>
    <path class="st5" d="M114.3,165.6c-.1-26.4-21.3-48-47.7-48.5-.6-1.6-.6-3.1-.2-4.6,29.2.4,52.5,23.9,52.7,53.1h-4.7Z"/>
    <path class="st5" d="M163.8,117c-.5-1.7-.5-3.1-.2-4.7,26.6-.3,48.2-21.6,48.5-48.2h4.6c-.2,29-23.6,52.5-52.9,52.8Z"/>
    <path class="st5" d="M265.2,210.8l.5,4.7c-29.1-.3-52.7-23.6-53-52.9,1.4-.6,3-.6,4.6-.3,0,26.5,21.5,48.1,47.9,48.5Z"/>
    <path class="st5" d="M167.5,215.4c-26.2,0-48.3,21.5-48.5,48h-4.6c0,.1.2-3.9.2-3.9,1.3-27.7,25.3-48.6,52.9-48.8.1,1.6.2,3.1,0,4.7Z"/>
    <path class="st5" d="M90.7,165.6c-.4-13.9-11-24.6-24.9-24.8l.6-4.6c16.1.4,29,13.3,28.9,29.3h-4.6Z"/>
    <path class="st5" d="M265.5,186.8v4.6c-16.1-.1-29.3-13.1-29.3-29.1,1.8-.3,3.1-.3,4.6,0,.5,13.5,10.7,24.2,24.7,24.5Z"/>
    <path class="st5" d="M164.2,93.4c-1.1-1.2-.9-2.9-.5-4.6,13.6-.5,24.2-10.8,24.5-24.6,1.6-.2,3-.2,4.6,0,0,15.7-12.2,28.6-28.6,29.3Z"/>
    <path class="st5" d="M142.9,263.3l-4.4.2c-.9-15.9,13.4-29.3,28.9-29.3v4.8c-13.5.3-24.2,10.5-24.5,24.3Z"/>
  </g>
</svg>