<?xml version="1.0" encoding="UTF-8"?>
<svg id="Layer_2" data-name="Layer 2" xmlns="http://www.w3.org/2000/svg" viewBox="0 0 326.1 326.1">
  <defs>
    <style>
      .cls-1 {
        fill: #ff8c69;
      }
    </style>
  </defs>
  <g id="Layer_1-2" data-name="Layer 1">
    <rect width="326.1" height="326.1" rx="7.3" ry="7.3"/>
    <g>
      <path class="cls-1" d="M254.3,262.4c-41-4.5-74.9-32.7-86.9-72.2-39.8,0-72.6,32.5-72.7,72.6h-4.7c0-42.2,33.7-76.3,76-77.3-1.4-6.6-2.3-12.7-2.7-19.8-1.6-.2-3.4,0-5.2.2-49.8,4.9-87.9,46.9-87.7,96.9h-4.6c-.2-45.3,29.8-85,72.8-97.7.1-39.9-32.2-72.7-72.6-72.8-.2-1.7,0-3,0-4.6,39.2,0,73,29.6,76.7,68.7l.7,7.3c6.6-1.4,12.9-2.4,19.8-2.8-2.1-51.5-44.8-92.3-95.4-92.9-1.1,0-2-.5-2.1-.9v-1.7l-.2-2.2c45.5,0,85,29.4,98,72.9,40.2-.4,72.3-32.9,72.3-72.9l4.7.2c0,31.9-19.7,60.7-49.6,72.1-8.4,3.2-17,5.2-26.1,5.2,1.5,6.6,2.5,13,2.8,20,51.6-2.5,92.7-45.3,92.5-97,1.7-.2,3.2,0,4.6.4,0,44.8-29.6,84.4-72.4,97.2-.2,40.1,32.4,73,72.9,73.1v4.6c-42.4-.4-76.6-33.7-77.5-76.4-6.8,1.6-13.3,2.5-20,2.9,2.2,52.1,45.4,93.2,97.6,92.8v4.4c-4,.1-7.4,0-11.3-.4h.2l.1.1Z"/>
      <path class="cls-1" d="M114.1,164.9c0-26.4-21.3-48-47.7-48.5-.6-1.6-.6-3.1-.2-4.6,29.2.4,52.5,23.9,52.7,53.1h-4.8Z"/>
      <path class="cls-1" d="M163.6,116.3c-.5-1.7-.5-3.1-.2-4.7,26.6-.3,48.2-21.6,48.5-48.2h4.6c-.2,29-23.6,52.5-52.9,52.8h0v.1Z"/>
      <path class="cls-1" d="M265,210.1l.5,4.7c-29.1-.3-52.7-23.6-53-52.9,1.4-.6,3-.6,4.6-.3,0,26.5,21.5,48.1,47.9,48.5Z"/>
      <path class="cls-1" d="M167.3,214.7c-26.2,0-48.3,21.5-48.5,48h-4.6c0,.1.2-3.9.2-3.9,1.3-27.7,25.3-48.6,52.9-48.8.1,1.6.2,3.1,0,4.7Z"/>
      <path class="cls-1" d="M90.5,164.9c-.4-13.9-11-24.6-24.9-24.8l.6-4.6c16.1.4,29,13.3,28.9,29.3h-4.6v.1Z"/>
      <path class="cls-1" d="M265.3,186.1v4.6c-16.1-.1-29.3-13.1-29.3-29.1,1.8-.3,3.1-.3,4.6,0,.5,13.5,10.7,24.2,24.7,24.5Z"/>
      <path class="cls-1" d="M164,92.7c-1.1-1.2-.9-2.9-.5-4.6,13.6-.5,24.2-10.8,24.5-24.6,1.6-.2,3-.2,4.6,0,0,15.7-12.2,28.6-28.6,29.3h0v-.1Z"/>
      <path class="cls-1" d="M142.7,262.6l-4.4.2c-.9-15.9,13.4-29.3,28.9-29.3v4.8c-13.5.3-24.2,10.5-24.5,24.3Z"/>
    </g>
  </g>
</svg>