<?xml version="1.0" encoding="UTF-8"?>
<svg id="Layer_1" xmlns="http://www.w3.org/2000/svg" version="1.1" viewBox="0 0 327 327">
  <!-- Generator: Adobe Illustrator 30.3.0, SVG Export Plug-In . SVG Version: 2.1.3 Build 182)  -->
  <defs>
    <style>
      .st0 {
        fill: #ef805d;
      }

      .st1 {
        fill: #d3ee50;
      }

      .st2 {
        fill: #ef27f4;
      }

      .st3 {
        fill: #c63efc;
      }

      .st4 {
        fill: #ff8c69;
      }
    </style>
  </defs>
  <rect x=".6" y=".4" width="326.1" height="326.1" rx="7.3" ry="7.3"/>
  <g>
    <path class="st1" d="M-145.9,607.1c1.8-24.7,12-46.2,29.6-63.7,13.6-13.5,30.8-22.7,49.7-26.5s14.7-2,22.3-2.2,5-.8,7.2-1.8c8.6-3.9,14.4-12,14.7-21.4-9.7,2.1-13.2,2.3-22.3,2.9-13.7-.9-25.6,10.2-26.6,24.1l-4.4,1c1.5-16.6,13.5-29.6,30.1-29.7,51.9-.3,94-43.2,93.9-95.3l4.5-.2c.3,44-28.3,83-70.6,95.8,0,14.4-10.6,27.2-25.3,28.8-2.3.3-4.3,0-6.6.4-27.4.8-53,13.6-70.5,34.7-13.4,16.2-21.8,38.4-21.6,59.5h-4.5l.5-6.4h-.1Z"/>
    <path class="st0" d="M-46.6,470.3c-26.1.2-47.3,21-47.9,47.1-1.7.2-2.6.2-4.6,1,0-32.7,26.4-52.8,56.9-53.3,38-.6,66.5-34.2,66.7-70.5,1.6-.2,2.9,0,4.6.1,0,39.6-30.5,72.5-70,75.5-1.8.1-3.5.2-5.8.2h.1Z"/>
    <path class="st0" d="M-141.8,517.3l-4.6.2.4-6.7c.9-13.6,4.8-26.5,11.2-38.7,16.4-31.4,48.9-52.5,84.8-53.1,14.9-.2,27.4-8.7,27.8-25l4.5.3c-.2,16.6-13.5,28.9-29.7,28.9-51.5.3-93.6,42.2-94.3,94h0Z"/>
    <path class="st0" d="M-117.9,517c-1.5.7-2.9.7-4.5.4.2-39.1,29.8-71.9,69-75.4,1.3-.1,3-.4,4.3-.4,26.9,1.2,49.8-19.8,50.3-47.1l4.7-.4c-.4,29.9-24.6,52.2-53.9,52.2-38.5.1-69.6,32.3-69.8,70.7h0Z"/>
    <path class="st3" d="M-42.8,565.7c-28.6.5-50,18.1-51.7,47.7-1,.2-2.8.2-4.5,0,.4-24.4,17.1-45,40.8-50.5,6.5-1.5,12.7-.9,19.1-1.6,36.4-4.1,63.6-34.5,63.8-70.9h4.5c.2,39.6-32.1,74.5-72.1,75.2h0Z"/>
    <path class="st3" d="M-75.4,613.3c.9-14.7,12.2-26.5,26.7-27.3l8.6-.4c16.5-.8,32.3-6.6,46.1-15.7,6.9-4.5,16.9-13.3,21.6-19.7l2.9-4c8.7-11.7,16.3-30.8,17.3-45.1l.7-10.8h4.2c.2,54.7-43.5,99.1-98.3,99.9-5.2,0-9.4.9-13.9,3.7-6.8,4.2-11.1,11.4-11.5,19.6-1.6,0-2.9,0-4.4-.2h0Z"/>
    <path class="st3" d="M-83.6,552.3c-21.3,13-34.5,36-34.4,61.1h-4.6c.5-4.8.6-9.2,1.5-13.9,3.6-19.6,14.7-36.6,30.9-48s20.3-11.3,32-12.9c3.7-.5,6.8-1,10.5-.9,26.7.4,48.4-20.7,49-47.3h4.5c-.6,26.4-19.9,47.8-46,51.2-3.1.4-6.1,0-9.2.3-12.2.7-23.6,3.9-34.1,10.3h0Z"/>
  </g>
  <g>
    <g>
      <path class="st2" d="M205.6,233.5c-9.4-9.4-21.7-15.4-34.9-17.1-13.2-1.7-26.7,1-38.3,7.6-4.5,2.6-8.6,5.8-12.4,9.4l-4.1-4.1c4.1-4,8.6-7.5,13.6-10.3,12.7-7.3,27.5-10.3,42-8.4,14.5,1.9,28,8.5,38.3,18.8l-4.3,4.1h.1,0Z"/>
      <path class="st2" d="M115.2,192.5c18.5-10.6,39.9-14.9,60.9-12.2s40.5,12.3,55.5,27.2l-4.2,4.2c-8.4-8.4-18.4-15-29.4-19.6-11-4.5-22.8-6.8-34.7-6.8s-23.7,2.5-34.8,7.1c-11,4.6-21.1,11.4-29.5,19.8l-4.1-4.1c6.1-6.1,12.9-11.3,20.3-15.6h0Z"/>
      <path class="st2" d="M249.3,189.9c-11.2-11.3-24.6-20.2-39.3-26.2s-30.5-9.1-46.5-9-31.8,3.4-46.5,9.6c-14.7,6.2-28.1,15.3-39.4,26.7l-4.1-4.1c11.8-11.9,25.9-21.4,41.3-28,15.5-6.5,32-9.9,48.8-10,16.7-.1,33.3,3.1,48.7,9.4,15.4,6.3,29.4,15.6,41.2,27.4l-4.1,4.1h0Z"/>
      <path class="st2" d="M184.8,254.3c-4.8-4.8-11-7.8-17.7-8.7s-13.5.5-19.4,3.9c-2.3,1.4-4.5,3-6.4,5l-4.1-4.1c2.3-2.3,4.9-4.3,7.7-6,7-4,15.1-5.7,23.1-4.6,8,1,15.4,4.6,21.1,10.3l-4.2,4.3h-.1Z"/>
      <path class="st2" d="M170.7,283.7c-1.7,1.7-4,2.8-6.4,3.2s-4.9-.1-7-1.3c-1-.6-1.8-1.3-2.6-2.1l-2.9,2.9c1,1.1,2.2,2,3.5,2.7,2.9,1.7,6.3,2.3,9.6,1.9s6.4-2,8.7-4.3l-2.9-2.9h0Z"/>
      <path class="st2" d="M155,268c1.7-1.7,4-2.8,6.4-3.2,2.4-.3,4.9.1,7,1.3.9.5,1.6,1.1,2.3,1.8l2.9-2.9c-.9-1-2-1.8-3.2-2.5-2.9-1.7-6.3-2.3-9.6-1.9s-6.4,2-8.7,4.3l2.9,2.9v.2h0Z"/>
      <path class="st2" d="M170.7,268c1.7,1.7,2.8,4,3.2,6.4.3,2.4-.1,4.9-1.3,7-.6,1-1.3,1.8-2.1,2.6l2.9,2.9c1.1-1,2-2.2,2.7-3.5,1.7-2.9,2.3-6.3,1.9-9.6-.4-3.3-2-6.4-4.3-8.7l-2.9,2.9h0Z"/>
      <path class="st2" d="M155,283.7c-1.7-1.7-2.8-4-3.2-6.4-.3-2.4.1-4.9,1.3-7,.5-.9,1.1-1.6,1.8-2.3l-2.9-2.9c-1,1-1.8,2-2.5,3.2-1.7,2.9-2.3,6.3-1.9,9.6.4,3.3,2,6.4,4.3,8.7l2.9-2.9h.2,0Z"/>
    </g>
    <g>
      <path class="st4" d="M205.6,87.1c-9.4,9.4-21.7,15.4-34.9,17.1s-26.7-1-38.3-7.6c-4.5-2.6-8.6-5.8-12.4-9.4l-4.1,4.1c4.1,4,8.6,7.5,13.6,10.4,12.7,7.3,27.5,10.3,42,8.4s28-8.5,38.3-18.8l-4.3-4.1h.1,0Z"/>
      <path class="st4" d="M115.2,128.1c18.5,10.6,39.9,14.9,60.9,12.2s40.5-12.3,55.5-27.2l-4.2-4.2c-8.4,8.4-18.4,15-29.4,19.6-11,4.5-22.8,6.8-34.7,6.8s-23.7-2.5-34.8-7.1c-11-4.6-21.1-11.4-29.5-19.8l-4.1,4.1c6.1,6.1,12.9,11.3,20.3,15.6h0Z"/>
      <path class="st4" d="M249.3,130.7c-11.2,11.3-24.6,20.2-39.3,26.2s-30.5,9.1-46.5,9-31.8-3.4-46.5-9.6c-14.7-6.2-28.1-15.3-39.4-26.7l-4.1,4.1c11.8,11.9,25.9,21.4,41.3,28,15.5,6.5,32,9.9,48.8,10,16.7.1,33.3-3.1,48.7-9.4,15.4-6.3,29.4-15.6,41.2-27.4l-4.1-4.1h0Z"/>
      <path class="st4" d="M184.8,66.3c-4.8,4.8-11,7.8-17.7,8.7-6.7.9-13.5-.5-19.4-3.9-2.3-1.4-4.5-3-6.4-5l-4.1,4.1c2.3,2.3,4.9,4.3,7.7,6,7,4,15.1,5.7,23.1,4.6,8-1,15.4-4.6,21.1-10.3l-4.2-4.3h-.1Z"/>
      <path class="st4" d="M170.7,36.9c-1.7-1.7-4-2.8-6.4-3.2-2.4-.3-4.9,0-7,1.3-1,.6-1.8,1.3-2.6,2.1l-2.9-2.9c1-1.1,2.2-2,3.5-2.7,2.9-1.7,6.3-2.3,9.6-1.9s6.4,2,8.7,4.3l-2.9,2.9h0Z"/>
      <path class="st4" d="M155,52.6c1.7,1.7,4,2.8,6.4,3.2,2.4.3,4.9,0,7-1.3.9-.5,1.6-1.1,2.3-1.8l2.9,2.9c-.9,1-2,1.8-3.2,2.5-2.9,1.7-6.3,2.3-9.6,1.9s-6.4-2-8.7-4.3l2.9-2.9v-.2h0Z"/>
      <path class="st4" d="M170.7,52.6c1.7-1.7,2.8-4,3.2-6.4.3-2.4-.1-4.9-1.3-7-.6-1-1.3-1.8-2.1-2.6l2.9-2.9c1.1,1,2,2.2,2.7,3.5,1.7,2.9,2.3,6.3,1.9,9.6-.4,3.3-2,6.4-4.3,8.7l-2.9-2.9h0Z"/>
      <path class="st4" d="M155,36.9c-1.7,1.7-2.8,4-3.2,6.4-.3,2.4.1,4.9,1.3,7,.5.9,1.1,1.6,1.8,2.3l-2.9,2.9c-1-.9-1.8-2-2.5-3.2-1.7-2.9-2.3-6.3-1.9-9.6.4-3.3,2-6.4,4.3-8.7l2.9,2.9h.2,0Z"/>
    </g>
  </g>
</svg>