<svg xmlns="http://www.w3.org/2000/svg" viewBox="0 0 640 640" aria-hidden="true" focusable="false">
  <rect width="640" height="640" rx="40" fill="#121826" />

  <!-- Document -->
  <g fill="none" stroke="#e3e6eb" stroke-linecap="round" stroke-linejoin="round" stroke-width="10" opacity=".95">
    <path d="M178 146h220l64 64v284c0 28-22 50-50 50H178c-28 0-50-22-50-50V196c0-28 22-50 50-50z" />
    <path d="M398 146v90h90" />
    <path d="M182 286h220" />
    <path d="M182 336h220" />
    <path d="M182 386h180" />
  </g>

  <!-- Shield + check -->
  <g fill="none" stroke-linecap="round" stroke-linejoin="round" stroke-width="10">
    <path d="M496 296l86 32v94c0 70-48 120-86 140-38-20-86-70-86-140v-94z" stroke="#ddf952" opacity=".85" />
    <path d="M458 410l28 28 62-72" stroke="#ddf952" opacity=".85" />
  </g>

  <!-- Controlled rules (strands) -->
  <g fill="none" stroke-linecap="round" stroke-linejoin="round" stroke-width="10" opacity=".45">
    <path d="M60 640V520c0-44.2 35.8-80 80-80h250c44.2 0 80-35.8 80-80V60" stroke="#174aff" />
    <path d="M60 640V548c0-44.2 35.8-80 80-80h222c44.2 0 80-35.8 80-80V60" stroke="#8b17ff" />
    <path d="M60 640V576c0-44.2 35.8-80 80-80h194c44.2 0 80-35.8 80-80V60" stroke="#ff8c69" />
  </g>
</svg>
