<svg xmlns="http://www.w3.org/2000/svg" viewBox="0 0 640 640" aria-hidden="true" focusable="false">
  <rect width="640" height="640" rx="40" fill="#121826" />

  <!-- Route nodes -->
  <g fill="none" stroke-linecap="round" stroke-linejoin="round" stroke-width="12" opacity=".9">
    <path d="M140 460c90-220 180-260 260-260 70 0 120 30 180 120" stroke="#174aff" />
    <path d="M170 520c110-250 220-300 320-300 60 0 110 22 150 90" stroke="#8b17ff" opacity=".85" />
    <path d="M120 400c70-170 150-220 240-220 90 0 170 60 260 170" stroke="#ff8c69" opacity=".8" />
  </g>

  <!-- Endpoints -->
  <g fill="none" stroke="#e3e6eb" stroke-width="12" opacity=".95">
    <circle cx="140" cy="460" r="20" />
    <circle cx="400" cy="200" r="22" />
    <circle cx="580" cy="320" r="20" />
  </g>

  <!-- REST label (subtle) -->
  <g fill="none" stroke-linecap="round" stroke-linejoin="round" stroke-width="10" opacity=".85">
    <path d="M140 130h90c30 0 54 24 54 54s-24 54-54 54h-90V130z" stroke="#ddf952" />
    <path d="M312 130h90" stroke="#ddf952" />
    <path d="M312 184h90" stroke="#ddf952" />
    <path d="M312 238h90" stroke="#ddf952" />
    <path d="M440 130h60c30 0 54 24 54 54s-24 54-54 54h-60" stroke="#ddf952" />
  </g>
</svg>
