<svg xmlns="http://www.w3.org/2000/svg" viewBox="0 0 640 640" aria-hidden="true" focusable="false">
  <rect width="640" height="640" rx="40" fill="#121826" />

  <!-- Tokens -->
  <g fill="none" stroke-linecap="round" stroke-linejoin="round" stroke-width="12" opacity=".95">
    <ellipse cx="240" cy="260" rx="95" ry="38" stroke="#ddf952" />
    <path d="M145 260v120c0 22 42 40 95 40s95-18 95-40V260" stroke="#ddf952" />
    <path d="M145 320c0 22 42 40 95 40s95-18 95-40" stroke="#ddf952" opacity=".7" />
    <path d="M145 360c0 22 42 40 95 40s95-18 95-40" stroke="#ddf952" opacity=".5" />
  </g>

  <g fill="none" stroke-linecap="round" stroke-linejoin="round" stroke-width="12" opacity=".9">
    <ellipse cx="420" cy="330" rx="95" ry="38" stroke="#174aff" />
    <path d="M325 330v95c0 22 42 40 95 40s95-18 95-40v-95" stroke="#174aff" />
  </g>

  <!-- Links between tokens -->
  <g fill="none" stroke-linecap="round" stroke-linejoin="round" stroke-width="10" opacity=".85">
    <path d="M318 292c22 8 48 14 76 16" stroke="#8b17ff" />
    <path d="M285 330c28 22 62 38 100 46" stroke="#ff8c69" />
  </g>
</svg>
